<?xml version="1.0" standalone="no"?>
<!DOCTYPE svg PUBLIC "-//W3C//DTD SVG 20010904//EN"
 "http://www.w3.org/TR/2001/REC-SVG-20010904/DTD/svg10.dtd">
<svg version="1.0" xmlns="http://www.w3.org/2000/svg"
 width="297.000000pt" height="170.000000pt" viewBox="0 0 297.000000 170.000000"
 preserveAspectRatio="xMidYMid meet">

<g transform="translate(0.000000,170.000000) scale(0.100000,-0.100000)"
fill="#000000" stroke="none">
<path d="M1310 1600 c-156 -41 -308 -142 -394 -263 -52 -72 -101 -175 -110
-227 -5 -25 0 -18 18 26 67 170 191 297 371 380 96 44 186 64 295 64 291 0
542 -168 657 -438 19 -45 23 -49 18 -22 -11 56 -70 170 -122 235 -98 121 -251
216 -400 249 -98 22 -239 20 -333 -4z"/>
<path d="M1403 1514 c-3 -8 2 -23 11 -32 15 -15 17 -15 32 0 21 21 11 48 -16
48 -11 0 -23 -7 -27 -16z m43 -5 c10 -17 -13 -36 -27 -22 -12 12 -4 33 11 33
5 0 12 -5 16 -11z"/>
<path d="M1475 1520 c-3 -6 2 -13 11 -17 16 -6 16 -7 -2 -14 -17 -7 -17 -8 4
-8 13 -1 22 5 22 14 0 8 -7 15 -16 15 -8 0 -12 5 -9 10 3 6 4 10 1 10 -3 0 -8
-5 -11 -10z"/>
<path d="M1534 1515 c-9 -23 3 -45 23 -44 17 1 17 2 1 6 -10 2 -18 13 -18 23
0 10 8 21 18 23 16 4 16 5 -1 6 -10 0 -20 -6 -23 -14z"/>
<path d="M1340 1496 c0 -14 4 -28 10 -31 6 -3 7 1 4 9 -4 11 0 16 11 16 9 0
13 -4 10 -10 -3 -5 -1 -10 5 -10 7 0 9 7 6 16 -3 9 -6 20 -6 25 0 5 -9 9 -20
9 -15 0 -20 -7 -20 -24z"/>
<path d="M1594 1506 c-9 -24 4 -48 23 -44 24 4 24 52 0 56 -9 2 -20 -4 -23
-12z m36 -16 c0 -11 -7 -20 -15 -20 -8 0 -15 9 -15 20 0 11 7 20 15 20 8 0 15
-9 15 -20z"/>
<path d="M1285 1478 c1 -12 8 -24 15 -26 9 -3 11 1 7 12 -4 10 -7 22 -7 27 0
5 -4 9 -8 9 -5 0 -8 -10 -7 -22z"/>
<path d="M1681 1479 c-11 -29 -6 -39 20 -39 23 0 36 27 21 42 -8 8 -9 5 -5
-11 4 -17 1 -21 -16 -21 -19 0 -20 3 -11 21 7 11 9 23 6 26 -3 3 -10 -5 -15
-18z"/>
<path d="M1250 1477 c0 -7 4 -18 9 -25 6 -11 9 -9 14 7 3 12 -1 22 -9 25 -8 3
-14 0 -14 -7z"/>
<path d="M1202 1461 c-20 -12 -10 -46 13 -46 14 0 20 7 20 24 0 27 -13 35 -33
22z m28 -27 c0 -8 -7 -14 -15 -14 -15 0 -21 21 -9 33 10 9 24 -2 24 -19z"/>
<path d="M1742 1446 c-8 -19 -8 -25 3 -30 10 -3 12 0 8 11 -4 11 -2 14 5 9 8
-5 10 -2 6 9 -5 11 -2 14 12 9 16 -5 16 -4 4 5 -21 15 -25 14 -38 -13z"/>
<path d="M1133 1423 c-16 -6 -16 -13 2 -37 12 -16 17 -17 30 -6 21 17 19 50
-2 49 -10 0 -24 -3 -30 -6z m35 -20 c-4 -22 -22 -20 -26 1 -2 10 3 16 13 16
10 0 15 -7 13 -17z"/>
<path d="M1812 1410 c-13 -21 -9 -40 8 -40 5 0 7 7 4 15 -4 8 -1 22 6 30 7 8
8 15 4 15 -5 0 -15 -9 -22 -20z"/>
<path d="M1862 1388 c-16 -16 -15 -45 2 -51 8 -3 22 3 32 14 10 11 12 19 6 19
-7 0 -12 -4 -12 -10 0 -5 -7 -10 -15 -10 -18 0 -18 5 -5 31 12 22 9 24 -8 7z"/>
<path d="M1064 1372 c1 -10 7 -26 13 -37 12 -20 12 -20 30 -1 17 19 17 19 -1
5 -18 -13 -19 -12 -13 3 4 12 2 15 -9 11 -7 -3 -14 -1 -14 5 0 6 5 12 12 14 8
3 7 6 -4 10 -10 4 -15 1 -14 -10z"/>
<path d="M1275 1307 l-100 -53 0 -47 c0 -31 -4 -47 -12 -47 -7 0 -13 -7 -13
-15 0 -8 7 -15 15 -15 8 0 15 5 15 10 0 7 13 8 35 4 32 -6 35 -4 35 18 0 29
18 47 80 79 37 19 60 23 130 23 141 -1 228 -41 239 -108 l6 -37 104 51 c57 28
102 52 100 54 -7 7 -501 136 -518 136 -9 0 -61 -24 -116 -53z m112 36 c-9 -9
-87 -43 -87 -38 0 6 72 44 84 45 5 0 6 -3 3 -7z"/>
<path d="M1024 1328 c-10 -12 -13 -18 -6 -14 8 5 22 0 35 -11 l22 -18 -18 22
c-11 12 -16 27 -12 32 11 18 -1 12 -21 -11z"/>
<path d="M1902 1338 c-7 -7 -12 -18 -12 -25 0 -21 28 -27 46 -9 13 13 14 19 4
31 -15 18 -22 19 -38 3z m23 -25 c-9 -8 -18 -13 -21 -10 -8 8 19 36 29 30 4
-2 0 -11 -8 -20z"/>
<path d="M1000 1295 c0 -2 10 -10 23 -16 20 -11 21 -11 8 4 -13 16 -31 23 -31
12z"/>
<path d="M1940 1284 c-11 -12 -11 -18 2 -31 15 -14 18 -14 39 1 24 17 15 23
-11 7 -23 -15 -33 -1 -14 20 9 10 12 19 7 19 -6 0 -16 -7 -23 -16z"/>
<path d="M977 1273 c-4 -3 -7 -13 -7 -21 0 -10 7 -12 27 -7 24 6 25 5 13 -12
-13 -17 -13 -17 5 -1 14 13 16 21 8 29 -8 8 -13 8 -17 0 -11 -17 -29 -13 -22
4 6 16 3 19 -7 8z"/>
<path d="M1150 1245 c-3 -5 -25 -23 -50 -40 l-45 -29 44 -9 c53 -11 63 -2 59
49 -2 22 -5 35 -8 29z"/>
<path d="M1358 1236 c-85 -30 -85 -30 -90 -171 -3 -86 -8 -129 -16 -134 -10
-6 -10 -14 -1 -37 6 -16 13 -23 16 -16 8 21 40 13 62 -15 12 -16 21 -22 21
-14 0 8 8 23 17 33 15 17 15 25 4 66 -11 44 -11 48 10 64 22 19 75 25 64 8
-11 -18 44 -23 70 -6 15 10 26 12 30 6 9 -14 63 -12 68 3 3 9 7 9 20 -2 11 -9
17 -28 17 -55 0 -30 -3 -37 -10 -26 -5 8 -10 11 -11 5 -1 -5 -2 -14 -4 -20 -1
-5 -3 -15 -3 -22 -1 -6 -14 -13 -29 -15 -23 -2 -29 -8 -31 -35 -2 -19 1 -33 7
-33 6 0 11 7 11 16 0 13 7 15 29 11 25 -5 30 -3 36 21 4 15 10 21 12 14 3 -8
12 -3 26 14 19 25 20 29 5 54 -12 21 -14 49 -10 132 l5 106 -34 18 c-83 43
-217 56 -291 30z"/>
<path d="M1984 1235 c-12 -9 -14 -14 -6 -15 7 0 10 -4 7 -10 -3 -5 -2 -10 3
-10 9 0 25 41 18 47 -1 2 -11 -4 -22 -12z"/>
<path d="M943 1215 c-3 -9 2 -22 13 -30 16 -12 19 -12 22 1 2 8 8 14 13 14 6
0 4 7 -5 15 -19 19 -35 19 -43 0z m27 -11 c0 -8 -4 -12 -10 -9 -5 3 -10 10
-10 16 0 5 5 9 10 9 6 0 10 -7 10 -16z"/>
<path d="M1999 1183 c-13 -15 -12 -15 11 -3 34 17 36 20 18 20 -9 0 -22 -7
-29 -17z"/>
<path d="M916 1164 c-7 -19 -8 -18 21 -32 17 -10 22 -9 27 5 4 9 4 18 1 21 -3
3 -5 0 -5 -6 0 -7 -4 -12 -10 -12 -5 0 -8 6 -6 13 1 6 1 9 -1 5 -8 -15 -22 -8
-17 7 4 8 4 15 1 15 -3 0 -8 -7 -11 -16z"/>
<path d="M2023 1167 c-25 -11 -27 -15 -14 -36 12 -19 51 -4 51 19 0 25 -10 30
-37 17z m27 -18 c0 -5 -4 -7 -10 -4 -5 3 -10 1 -10 -5 0 -6 -5 -8 -11 -4 -8 4
-7 9 2 15 19 12 29 11 29 -2z"/>
<path d="M913 1113 c19 -21 18 -22 -10 -26 -27 -4 -27 -4 5 -6 38 -1 41 9 10
35 l-23 19 18 -22z"/>
<path d="M1150 1107 c0 -8 7 -14 15 -14 8 0 15 6 15 14 0 7 -7 13 -15 13 -8 0
-15 -6 -15 -13z"/>
<path d="M2038 1075 c4 -25 5 -25 23 -9 25 23 24 34 -5 34 -20 0 -22 -4 -18
-25z"/>
<path d="M1151 1018 c0 -67 17 -131 18 -73 1 17 4 54 7 83 6 44 4 52 -10 52
-13 0 -16 -11 -15 -62z"/>
<path d="M880 1056 c0 -2 11 -6 25 -8 13 -3 22 -1 19 3 -5 9 -44 13 -44 5z"/>
<path d="M2070 1036 c0 -19 -16 -21 -23 -3 -4 7 -6 8 -6 1 -1 -6 6 -17 15 -24
13 -11 16 -10 21 9 4 18 8 20 15 9 8 -10 9 -10 6 1 -6 21 -28 26 -28 7z"/>
<path d="M890 1020 c12 -8 12 -10 -3 -16 -22 -8 -12 -24 16 -23 20 1 20 2 3 6
-18 5 -18 6 5 24 l24 19 -30 0 c-22 0 -26 -3 -15 -10z"/>
<path d="M2063 983 c20 -5 23 -29 5 -36 -7 -3 -3 -6 9 -6 12 -1 25 4 29 11 5
7 3 8 -6 3 -10 -6 -12 -3 -8 13 5 19 2 22 -20 21 -17 -1 -21 -3 -9 -6z"/>
<path d="M888 960 c30 -13 28 -30 -5 -31 -26 -2 -26 -2 -4 -6 31 -6 48 11 31
32 -7 8 -20 15 -29 14 -11 0 -9 -3 7 -9z"/>
<path d="M2070 920 c-13 -9 -13 -10 0 -10 8 0 22 5 30 10 13 9 13 10 0 10 -8
0 -22 -5 -30 -10z"/>
<path d="M1421 866 c-15 -18 -7 -22 43 -25 36 -2 66 12 66 30 0 15 -96 10
-109 -5z"/>
<path d="M1282 850 c0 -14 2 -19 5 -12 2 6 2 18 0 25 -3 6 -5 1 -5 -13z"/>
<path d="M1312 830 c0 -14 2 -19 5 -12 2 6 2 18 0 25 -3 6 -5 1 -5 -13z"/>
<path d="M1636 775 c-4 -13 -10 -14 -26 -5 -19 10 -20 9 -14 -14 4 -16 2 -26
-5 -26 -6 0 -11 3 -11 8 0 4 -18 7 -41 8 -40 0 -40 0 -18 -17 22 -16 22 -17 3
-22 -13 -3 -10 -5 11 -7 26 -1 27 -3 10 -10 -19 -7 -19 -8 -2 -15 12 -5 22 -1
32 11 19 27 27 13 14 -24 -12 -34 -27 -42 -82 -44 -60 -2 -84 31 -49 68 17 17
17 20 3 31 -14 10 -14 14 4 34 l20 23 -25 -16 c-20 -12 -24 -23 -22 -48 2 -17
-3 -41 -11 -54 -14 -20 -13 -23 4 -34 26 -17 24 -31 -3 -24 -44 11 -68 33 -68
62 0 16 -5 41 -11 57 l-11 28 -13 -25 c-8 -14 -14 -37 -15 -52 0 -20 -10 -32
-37 -50 l-38 -23 40 -8 c22 -4 47 -8 55 -9 8 0 42 -22 76 -48 51 -40 64 -46
80 -37 10 6 39 16 63 23 36 9 47 17 54 40 5 16 23 43 39 60 l29 31 -23 15
c-21 14 -22 17 -10 68 12 51 11 78 -2 45z"/>
<path d="M806 700 c9 -52 34 -108 50 -114 10 -4 8 6 -7 36 -12 23 -28 58 -35
77 l-14 36 6 -35z"/>
<path d="M2161 710 c-1 -8 -12 -39 -26 -68 -14 -30 -20 -52 -13 -50 14 5 51
106 44 122 -2 6 -5 4 -5 -4z"/>
<path d="M800 585 c0 -3 11 -33 25 -67 14 -34 25 -65 25 -69 0 -4 -31 -18 -70
-30 -38 -13 -70 -26 -70 -29 0 -4 30 -17 68 -30 37 -13 72 -25 78 -27 7 -3 16
26 24 77 11 71 16 83 36 91 86 33 88 28 -16 60 -109 33 -100 30 -100 24z"/>
<path d="M2078 561 c-49 -14 -88 -29 -88 -33 0 -3 17 -12 38 -18 20 -7 40 -15
44 -19 4 -4 13 -42 20 -84 11 -75 13 -78 35 -72 46 11 133 47 133 54 0 4 -31
17 -70 30 -38 12 -70 24 -70 26 0 3 12 34 26 70 15 36 25 67 23 69 -2 1 -43
-9 -91 -23z"/>
<path d="M956 501 l-39 -17 34 -28 33 -28 8 23 c5 13 8 33 6 45 -3 21 -4 21
-42 5z"/>
<path d="M1971 497 c1 -12 4 -33 8 -46 l7 -25 33 30 33 30 -41 16 c-40 16 -41
16 -40 -5z"/>
<path d="M2025 443 c-105 -91 -248 -161 -387 -189 -214 -43 -472 21 -663 166
-37 28 -69 50 -70 48 -2 -2 -10 -50 -19 -108 l-17 -105 27 -22 c93 -74 266
-149 415 -179 110 -22 311 -15 424 15 89 24 282 116 334 159 l34 29 -18 109
c-9 60 -18 110 -19 111 0 0 -19 -15 -41 -34z m-1049 -139 c-4 -9 -2 -13 5 -8
17 10 58 -16 52 -33 -4 -11 0 -13 20 -8 18 5 31 1 44 -12 11 -11 25 -17 31
-15 7 2 12 -5 12 -15 0 -14 2 -15 9 -4 6 9 15 11 27 6 23 -10 53 -17 79 -19
25 -1 34 -13 27 -38 -6 -23 -38 -19 -36 5 1 9 -2 17 -7 17 -5 0 -9 -7 -9 -16
0 -13 -3 -14 -13 -5 -8 6 -17 8 -20 4 -4 -3 -7 2 -7 13 0 14 -2 16 -9 5 -9
-14 -11 -13 -128 40 -24 10 -43 24 -43 31 0 6 -3 8 -7 5 -3 -4 -15 0 -25 10
-10 9 -18 13 -18 8 0 -4 -7 -2 -15 5 -12 10 -13 16 -4 26 16 19 43 18 35 -2z
m1064 -15 c0 -3 -16 -11 -35 -19 -19 -8 -35 -17 -35 -21 0 -5 -18 -14 -40 -20
-22 -7 -40 -15 -40 -19 0 -13 -48 -18 -61 -6 -9 8 -10 7 -6 -6 4 -10 3 -18 -1
-18 -10 0 -32 22 -32 31 0 6 44 22 65 23 6 1 13 5 16 9 4 5 18 10 33 10 14 1
26 8 26 15 0 7 5 10 10 7 6 -3 10 -1 10 5 0 7 7 10 15 6 9 -3 15 0 15 8 0 8 6
16 13 19 12 4 47 -13 47 -24z m-300 -120 c0 -11 -7 -20 -15 -20 -18 -2 -34 -5
-37 -9 -2 -1 -15 -4 -30 -6 -21 -2 -28 2 -29 14 -1 15 -2 15 -6 0 -4 -15 -23
-26 -23 -14 0 2 -3 12 -7 22 -5 14 -1 16 25 12 18 -2 32 -1 32 3 0 8 28 14 68
16 15 0 22 -5 22 -18z m40 11 c0 -5 -4 -10 -10 -10 -5 0 -10 5 -10 10 0 6 5
10 10 10 6 0 10 -4 10 -10z m-292 -21 c35 -1 66 2 69 5 8 8 33 -13 33 -28 0
-6 -18 -12 -40 -14 -27 -2 -40 2 -40 10 0 10 -2 10 -8 1 -5 -8 -27 -11 -62 -8
-30 1 -65 4 -77 4 -16 1 -23 7 -23 22 0 18 4 19 43 14 23 -3 70 -6 105 -6z
m-168 -9 c0 -5 -4 -10 -10 -10 -5 0 -10 5 -10 10 0 6 5 10 10 10 6 0 10 -4 10
-10z"/>
<path d="M1212 398 c6 -55 24 -78 65 -78 38 0 63 34 63 85 0 38 -3 45 -20 45
-17 0 -20 -7 -20 -45 0 -33 -5 -47 -16 -52 -21 -8 -34 14 -34 60 0 31 -3 37
-21 37 -20 0 -21 -4 -17 -52z"/>
<path d="M1360 384 l0 -67 52 5 c62 6 93 36 83 77 -9 37 -32 51 -87 51 l-48 0
0 -66z m93 14 c13 -20 -6 -48 -34 -48 -15 0 -19 7 -19 36 0 31 3 35 21 32 12
-2 27 -10 32 -20z"/>
<path d="M1520 384 l0 -66 56 4 c59 5 79 20 63 49 -5 10 -6 25 -3 33 11 28
-15 46 -67 46 l-49 0 0 -66z m80 26 c0 -5 -9 -10 -20 -10 -11 0 -20 5 -20 10
0 6 9 10 20 10 11 0 20 -4 20 -10z m-2 -48 c2 -7 -6 -12 -17 -12 -21 0 -27 11
-14 24 9 9 26 2 31 -12z"/>
<path d="M1670 385 l0 -65 50 0 c38 0 50 4 50 15 0 10 -10 15 -30 15 -29 0
-30 1 -30 50 0 43 -3 50 -20 50 -18 0 -20 -7 -20 -65z"/>
</g>
</svg>
